<svg width="21" height="18" viewBox="0 0 21 18" fill="none" xmlns="http://www.w3.org/2000/svg">
<path d="M11.1364 9.03098L10.8411 9.28662L11.1969 9.44774C12.553 10.0618 13.7035 11.0535 14.511 12.3041C15.3184 13.5548 15.7486 15.0116 15.75 16.5002C15.7499 16.6991 15.6709 16.8897 15.5303 17.0303C15.3897 17.171 15.1989 17.25 15 17.25C14.8011 17.25 14.6103 17.171 14.4697 17.0303C14.329 16.8897 14.25 16.6989 14.25 16.5C14.25 14.8424 13.5915 13.2527 12.4194 12.0806C11.2473 10.9085 9.6576 10.25 8 10.25C6.3424 10.25 4.75269 10.9085 3.58058 12.0806C2.40848 13.2527 1.75 14.8424 1.75 16.5C1.75 16.6989 1.67098 16.8897 1.53033 17.0303C1.38968 17.171 1.19891 17.25 1 17.25C0.801087 17.25 0.610322 17.171 0.46967 17.0303C0.329043 16.8897 0.250029 16.699 0.25 16.5001C0.25145 15.0115 0.681596 13.5548 1.48901 12.3041C2.29645 11.0535 3.44701 10.0618 4.80312 9.44774L5.15895 9.28662L4.86362 9.03098C4.35715 8.59258 3.95093 8.05036 3.67251 7.44111C3.39409 6.83186 3.24999 6.16985 3.25 5.5C3.25 4.24022 3.75044 3.03204 4.64124 2.14124C5.53204 1.25044 6.74022 0.75 8 0.75C9.25978 0.75 10.468 1.25044 11.3588 2.14124C12.2496 3.03204 12.75 4.24022 12.75 5.5C12.75 6.16985 12.6059 6.83186 12.3275 7.44111C12.0491 8.05036 11.6428 8.59258 11.1364 9.03098ZM19.5325 6.30605L19.5329 6.3065C19.6048 6.37858 19.6612 6.46453 19.6988 6.55912C19.7364 6.65371 19.7543 6.75496 19.7515 6.8567C19.7487 6.95844 19.7252 7.05854 19.6825 7.15091C19.6398 7.24329 19.5787 7.326 19.503 7.394L19.5027 7.39374L19.4932 7.40322L16.8237 10.0727C16.8237 10.0727 16.8236 10.0728 16.8236 10.0729C16.6831 10.2124 16.4931 10.2908 16.295 10.2908C16.097 10.2908 15.907 10.2125 15.7665 10.073C15.7664 10.0729 15.7663 10.0728 15.7662 10.0727L14.4273 8.73375C14.4272 8.73365 14.4271 8.73355 14.427 8.73346C14.2875 8.59296 14.2092 8.403 14.2092 8.205C14.2092 8.00686 14.2876 7.81677 14.4273 7.67625L14.4275 7.67605C14.4972 7.60575 14.5802 7.54996 14.6716 7.51188C14.763 7.47381 14.861 7.4542 14.96 7.4542C15.059 7.4542 15.157 7.47381 15.2484 7.51188C15.3397 7.5499 15.4225 7.60557 15.4922 7.6757C15.4923 7.67582 15.4924 7.67593 15.4925 7.67605L16.1118 8.30536L16.2886 8.48497L16.4668 8.30678L18.4668 6.30678L18.4675 6.30605C18.5372 6.23575 18.6202 6.17996 18.7116 6.14188C18.803 6.10381 18.901 6.0842 19 6.0842C19.099 6.0842 19.197 6.10381 19.2884 6.14188C19.3798 6.17996 19.4628 6.23575 19.5325 6.30605ZM6.1944 8.20228C6.72886 8.55939 7.35721 8.75 8 8.75C8.86195 8.75 9.6886 8.40759 10.2981 7.7981C10.9076 7.1886 11.25 6.36195 11.25 5.5C11.25 4.85721 11.0594 4.22886 10.7023 3.6944C10.3452 3.15994 9.83758 2.74338 9.24372 2.49739C8.64986 2.25141 7.99639 2.18705 7.36596 2.31245C6.73552 2.43785 6.15642 2.74738 5.7019 3.2019C5.24738 3.65642 4.93785 4.23552 4.81245 4.86596C4.68705 5.49639 4.75141 6.14986 4.99739 6.74372C5.24338 7.33758 5.65994 7.84516 6.1944 8.20228Z" fill="#333333" stroke="white" stroke-width="0.5"/>
</svg>
