<svg width="230" height="37" viewBox="0 0 230 37" fill="none" xmlns="http://www.w3.org/2000/svg">
<g clip-path="url(#clip0_54796_1325)">
<path d="M15.503 37.0233C13.2739 37.0233 11.2644 36.6776 9.47443 35.9863C7.71822 35.2621 6.2153 34.2909 4.96566 33.0729C3.74981 31.8548 2.82104 30.4557 2.17935 28.8756C1.53765 27.2625 1.2168 25.5836 1.2168 23.8388C1.2168 21.9624 1.53765 20.2011 2.17935 18.5552C2.82104 16.8762 3.74981 15.4113 4.96566 14.1604C6.1815 12.9094 7.66752 11.9218 9.42374 11.1975C11.2137 10.4733 13.2402 10.1112 15.503 10.1112C17.7658 10.1112 19.7753 10.4733 21.5315 11.1975C23.2878 11.9218 24.7738 12.9094 25.9897 14.1604C27.2055 15.3784 28.1174 16.7939 28.7253 18.407C29.367 20.0201 29.6879 21.7155 29.6879 23.4931C29.6879 23.954 29.671 24.4149 29.6372 24.8758C29.6034 25.3037 29.5528 25.6823 29.4853 26.0115H9.82905C9.96412 27.7563 10.6058 29.0895 11.7541 30.0113C12.9362 30.9001 14.2703 31.3446 15.7563 31.3446C16.9383 31.3446 18.0698 31.0647 19.1505 30.5051C20.2651 29.9454 21.008 29.1883 21.3796 28.2336L28.2694 30.11C27.2224 32.1511 25.6012 33.8136 23.406 35.0975C21.2107 36.3813 18.5764 37.0233 15.503 37.0233ZM21.1263 21.1229C20.9574 19.4769 20.3495 18.1766 19.3025 17.2219C18.2556 16.2672 16.9552 15.7899 15.4017 15.7899C13.8143 15.7899 12.4972 16.2837 11.4502 17.2712C10.437 18.2259 9.84595 19.5098 9.67709 21.1229H21.1263ZM58.9954 36.5295H50.89V21.9624C50.89 20.2505 50.5522 19.016 49.8767 18.2589C49.2351 17.4688 48.3738 17.0738 47.2931 17.0738C46.7189 17.0738 46.1448 17.1889 45.5706 17.4194C44.9965 17.6499 44.4392 17.979 43.8989 18.407C43.3585 18.8021 42.8688 19.2794 42.4297 19.8391C42.0244 20.3987 41.7036 21.0077 41.4671 21.6661V36.5295H33.3615V10.605H40.6566V14.9504C41.6361 13.4032 43.0207 12.2181 44.8108 11.3951C46.6007 10.5392 48.6609 10.1112 50.9913 10.1112C52.7137 10.1112 54.0985 10.4239 55.1454 11.0494C56.1924 11.642 57.003 12.4321 57.5771 13.4196C58.1513 14.3743 58.5228 15.4278 58.6914 16.5799C58.8944 17.7321 58.9954 18.8514 58.9954 19.9378V36.5295ZM81.3582 35.1468C80.2434 35.6077 78.9602 36.0357 77.508 36.4307C76.0893 36.8258 74.6541 37.0233 73.202 37.0233C72.1887 37.0233 71.2258 36.8916 70.3141 36.6282C69.4363 36.3978 68.6595 36.0192 67.9836 35.4925C67.3082 34.9329 66.7678 34.2086 66.363 33.3198C65.991 32.431 65.8056 31.361 65.8056 30.11V16.5799H62.4113V10.605H65.8056V2.35855H73.9113V10.605H79.3316V16.5799H73.9113V27.3942C73.9113 28.2501 74.1308 28.8756 74.5696 29.2706C75.0085 29.6327 75.5659 29.8138 76.2413 29.8138C76.8491 29.8138 77.474 29.715 78.1159 29.5175C78.7578 29.32 79.3146 29.106 79.7875 28.8756L81.3582 35.1468ZM96.5892 37.0233C94.3602 37.0233 92.3506 36.6776 90.5605 35.9863C88.8044 35.2621 87.3012 34.2909 86.0515 33.0729C84.8357 31.8548 83.9069 30.4557 83.2656 28.8756C82.6238 27.2625 82.3028 25.5836 82.3028 23.8388C82.3028 21.9624 82.6238 20.2011 83.2656 18.5552C83.9069 16.8762 84.8357 15.4113 86.0515 14.1604C87.2678 12.9094 88.7534 11.9218 90.5101 11.1975C92.2996 10.4733 94.3262 10.1112 96.5892 10.1112C98.8517 10.1112 100.861 10.4733 102.618 11.1975C104.374 11.9218 105.86 12.9094 107.076 14.1604C108.292 15.3784 109.203 16.7939 109.811 18.407C110.453 20.0201 110.774 21.7155 110.774 23.4931C110.774 23.954 110.757 24.4149 110.723 24.8758C110.69 25.3037 110.639 25.6823 110.571 26.0115H90.9149C91.0504 27.7563 91.6917 29.0895 92.84 30.0113C94.0222 30.9001 95.3565 31.3446 96.8421 31.3446C98.0244 31.3446 99.1556 31.0647 100.236 30.5051C101.351 29.9454 102.094 29.1883 102.466 28.2336L109.355 30.11C108.309 32.1511 106.688 33.8136 104.492 35.0975C102.297 36.3813 99.6625 37.0233 96.5892 37.0233ZM102.212 21.1229C102.043 19.4769 101.436 18.1766 100.388 17.2219C99.3416 16.2672 98.0414 15.7899 96.4877 15.7899C94.9006 15.7899 93.5834 16.2837 92.536 17.2712C91.5228 18.2259 90.9319 19.5098 90.7629 21.1229H102.212ZM131.317 17.37C129.358 17.403 127.585 17.7157 125.998 18.3082C124.411 18.9008 123.263 19.7896 122.553 20.9747V36.5295H114.448V10.605H121.894V15.8392C122.806 14.0945 123.972 12.7283 125.39 11.7407C126.842 10.7531 128.379 10.2429 130 10.2099C130.372 10.2099 130.642 10.2099 130.811 10.2099C130.979 10.2099 131.148 10.2264 131.317 10.2593V17.37ZM134.63 0.482066H142.736V27.2954C142.736 29.2706 143.597 30.2582 145.319 30.2582C145.725 30.2582 146.164 30.2088 146.637 30.11C147.143 29.9784 147.599 29.7973 148.005 29.5669L149.069 35.4925C148.055 35.9534 146.89 36.3155 145.573 36.5788C144.256 36.8422 143.023 36.9739 141.875 36.9739C139.544 36.9739 137.755 36.3813 136.505 35.1962C135.255 34.0111 134.63 32.2992 134.63 30.0607V0.482066ZM164.416 37.0233C162.187 37.0233 160.178 36.6776 158.388 35.9863C156.632 35.2621 155.129 34.2909 153.879 33.0729C152.663 31.8548 151.735 30.4557 151.093 28.8756C150.451 27.2625 150.131 25.5836 150.131 23.8388C150.131 21.9624 150.451 20.2011 151.093 18.5552C151.735 16.8762 152.663 15.4113 153.879 14.1604C155.095 12.9094 156.581 11.9218 158.337 11.1975C160.127 10.4733 162.154 10.1112 164.416 10.1112C166.679 10.1112 168.689 10.4733 170.445 11.1975C172.201 11.9218 173.687 12.9094 174.903 14.1604C176.119 15.3784 177.031 16.7939 177.639 18.407C178.28 20.0201 178.601 21.7155 178.601 23.4931C178.601 23.954 178.584 24.4149 178.551 24.8758C178.517 25.3037 178.466 25.6823 178.399 26.0115H158.743C158.878 27.7563 159.519 29.0895 160.668 30.0113C161.849 30.9001 163.184 31.3446 164.67 31.3446C165.852 31.3446 166.983 31.0647 168.064 30.5051C169.178 29.9454 169.922 29.1883 170.293 28.2336L177.183 30.11C176.136 32.1511 174.515 33.8136 172.32 35.0975C170.124 36.3813 167.49 37.0233 164.416 37.0233ZM170.04 21.1229C169.871 19.4769 169.263 18.1766 168.216 17.2219C167.169 16.2672 165.868 15.7899 164.315 15.7899C162.728 15.7899 161.41 16.2837 160.364 17.2712C159.35 18.2259 158.76 19.5098 158.591 21.1229H170.04ZM189.823 37.0233C188.506 37.0233 187.273 36.8258 186.125 36.4307C185.011 36.0027 184.048 35.4267 183.238 34.7024C182.427 33.9452 181.785 33.0729 181.313 32.0853C180.84 31.0647 180.603 29.9619 180.603 28.7768C180.603 27.4929 180.873 26.3242 181.413 25.2709C181.988 24.2174 182.782 23.3121 183.795 22.5549C184.808 21.7978 186.007 21.2052 187.392 20.7773C188.776 20.3493 190.313 20.1353 192.002 20.1353C193.116 20.1353 194.197 20.2341 195.244 20.4316C196.291 20.5962 197.203 20.8596 197.98 21.2217V20.0365C197.98 17.0408 196.207 15.543 192.661 15.543C191.208 15.543 189.823 15.7899 188.506 16.2837C187.189 16.7446 185.805 17.4523 184.352 18.407L181.971 13.469C183.727 12.3498 185.551 11.5103 187.442 10.9506C189.334 10.391 191.343 10.1112 193.471 10.1112C197.49 10.1112 200.597 11.0329 202.792 12.8764C204.988 14.72 206.085 17.4194 206.085 20.9747V27.6411C206.085 28.4312 206.204 28.9908 206.44 29.32C206.71 29.6163 207.166 29.7973 207.808 29.8631V36.5295C207.098 36.6941 206.457 36.7928 205.883 36.8258C205.308 36.8916 204.785 36.9245 204.312 36.9245C202.792 36.9245 201.644 36.6447 200.867 36.085C200.09 35.4925 199.601 34.6695 199.398 33.6161L199.246 32.431C198.064 33.9123 196.646 35.0481 194.99 35.8381C193.369 36.6282 191.647 37.0233 189.823 37.0233ZM192.204 31.3446C193.082 31.3446 193.927 31.1964 194.738 30.9001C195.582 30.6039 196.274 30.2088 196.815 29.715C197.591 29.1225 197.98 28.497 197.98 27.8386V25.3696C197.271 25.1063 196.494 24.9087 195.649 24.777C194.839 24.6124 194.079 24.5301 193.369 24.5301C191.884 24.5301 190.651 24.8593 189.671 25.5177C188.726 26.1761 188.253 27.032 188.253 28.0855C188.253 29.0402 188.624 29.8303 189.367 30.4557C190.111 31.0483 191.056 31.3446 192.204 31.3446ZM213.483 36.5295V18.7033H210.089V12.7283H213.483V10.605C213.483 8.99193 213.703 7.52699 214.142 6.21017C214.581 4.89335 215.206 3.77408 216.016 2.85233C216.827 1.93053 217.806 1.2228 218.954 0.728958C220.103 0.235174 221.369 -0.0117188 222.754 -0.0117188C224.916 -0.0117188 227.229 0.498537 229.695 1.51905L228.225 7.44463C227.685 7.21421 227.077 7.03314 226.401 6.90149C225.76 6.7369 225.152 6.6546 224.578 6.6546C222.585 6.6546 221.589 7.87265 221.589 10.3087V12.7283H227.77V18.7033H221.589V36.5295H213.483Z" fill="#666666"/>
<path d="M197.794 26.3668C197.794 26.3668 196.428 28.0575 193.018 27.0922C193.018 27.0922 193.827 24.9788 197.794 26.3668Z" fill="#206D1A"/>
<path d="M192.38 15.5996C192.38 15.5996 194.595 15.8795 194.66 18.8154C194.654 18.8097 192.169 19.1238 192.38 15.5996Z" fill="#206D1A"/>
<path d="M200.625 4.95898C200.625 4.95898 203.614 8.68878 199.699 15.2745C199.699 15.2802 195.492 12.4871 200.625 4.95898Z" fill="#206D1A"/>
<path d="M209.573 18.6553C209.573 18.6553 206.532 22.3394 199.061 20.1289C199.061 20.1289 200.889 15.4967 209.573 18.6553Z" fill="#206D1A"/>
<path d="M193.388 24.5096C193.358 24.5096 193.329 24.5039 193.299 24.5039C193.282 24.5096 193.264 24.5153 193.241 24.5153C193.229 24.5153 193.217 24.5096 193.206 24.5096C193.182 24.5153 193.165 24.521 193.142 24.521C193.118 24.521 193.094 24.5153 193.077 24.5096C193.012 24.5153 192.948 24.5267 192.877 24.5324H192.872C192.872 24.5324 192.872 24.5324 192.866 24.5324C192.813 24.5381 192.761 24.5439 192.713 24.5439C192.696 24.5439 192.678 24.5381 192.661 24.5324C192.626 24.5496 192.578 24.561 192.532 24.561C192.509 24.561 192.491 24.5496 192.473 24.5496C192.444 24.561 192.414 24.5667 192.374 24.5667C192.368 24.5667 192.362 24.5667 192.356 24.561C192.338 24.561 192.327 24.5724 192.315 24.5724C192.297 24.5724 192.286 24.5667 192.268 24.561C192.25 24.5667 192.239 24.5667 192.221 24.5724C192.18 24.5953 192.133 24.6124 192.075 24.6124C192.063 24.6124 192.051 24.6067 192.04 24.6067C192.004 24.6239 191.964 24.6295 191.922 24.6295C191.916 24.6295 191.916 24.6295 191.911 24.6295C191.899 24.6352 191.887 24.6352 191.876 24.6352C191.87 24.6352 191.87 24.641 191.87 24.641C191.834 24.6581 191.799 24.6695 191.758 24.6638H191.752C191.752 24.6638 191.752 24.6638 191.747 24.6638C191.712 24.6809 191.665 24.6924 191.617 24.6924C191.606 24.6924 191.594 24.6867 191.582 24.6867C191.542 24.7152 191.489 24.7381 191.418 24.7381C191.407 24.7381 191.395 24.7323 191.383 24.7323C191.366 24.7438 191.336 24.7438 191.313 24.7495H191.307C191.266 24.7724 191.225 24.7895 191.184 24.8066C191.172 24.8123 191.161 24.8066 191.149 24.8066C191.143 24.8123 191.137 24.8123 191.137 24.8123H191.143C191.137 24.8123 191.137 24.8123 191.132 24.8123C191.108 24.8294 191.085 24.8409 191.061 24.8523C191.032 24.858 191.002 24.8637 190.973 24.8751C190.985 24.8695 190.997 24.8637 191.002 24.8637C190.979 24.8751 190.95 24.8809 190.92 24.8866C190.909 24.8923 190.885 24.8923 190.873 24.898C190.856 24.9094 190.844 24.9208 190.827 24.9265C190.762 24.9551 190.698 24.9837 190.627 25.0008C190.563 25.0179 190.504 25.0465 190.44 25.0693C190.417 25.0865 190.393 25.1094 190.358 25.115C190.346 25.1265 190.322 25.1265 190.311 25.1322C190.299 25.1379 190.293 25.1436 190.282 25.1493C190.27 25.155 190.253 25.155 190.24 25.1608C190.235 25.1608 190.229 25.1664 190.217 25.1722C190.2 25.1836 190.188 25.2007 190.164 25.2064C190.141 25.2178 190.118 25.2178 190.094 25.2236C189.584 26.6516 189.403 28.1195 189.614 29.5588C190.37 34.7223 193.587 36.3787 193.587 36.3787C191.079 31.6665 191.571 27.6968 193.388 24.5096Z" fill="#206D1A"/>
<path d="M208.177 3.19336C204.151 8.00269 205.364 10.7558 206.092 11.7326C205.036 13.1034 203.249 14.6456 200.208 15.8965C197.489 17.016 195.209 18.501 193.457 20.1974C193.492 20.1974 193.527 20.2031 193.563 20.2089C193.569 20.2089 193.569 20.2089 193.574 20.2089C193.586 20.2089 193.592 20.2145 193.604 20.2145C193.622 20.2145 193.633 20.2203 193.651 20.2203C193.662 20.2203 193.668 20.2203 193.68 20.2203C193.686 20.2203 193.691 20.2145 193.698 20.2145C193.709 20.2145 193.721 20.2203 193.727 20.226C193.821 20.2374 193.908 20.2488 194.003 20.2603C194.19 20.2889 194.377 20.3116 194.565 20.3459H194.57C194.594 20.3459 194.612 20.3459 194.635 20.3517C194.734 20.3631 194.835 20.386 194.934 20.4087C194.969 20.4031 195.004 20.3973 195.045 20.4087C195.104 20.4202 195.163 20.4373 195.216 20.4545C195.262 20.4488 195.303 20.443 195.35 20.4545C195.561 20.4944 195.778 20.5173 195.983 20.563C196.006 20.5687 196.03 20.5802 196.059 20.5858C196.065 20.5858 196.071 20.5858 196.082 20.5915C196.088 20.5915 196.094 20.5858 196.106 20.5858C196.164 20.5858 196.206 20.6029 196.246 20.6315C196.341 20.643 196.434 20.6601 196.528 20.6887C198.11 19.2379 199.892 18.0612 201.55 17.193C204.662 15.5594 206.185 13.5089 206.929 11.7954C210.633 8.65954 208.177 3.19336 208.177 3.19336Z" fill="#206D1A"/>
<path d="M193.17 26.8293C193.059 26.9835 193.018 27.092 193.018 27.092C196.428 28.0573 197.794 26.3666 197.794 26.3666C197.694 26.3323 197.595 26.2981 197.5 26.2695C196.997 26.6865 195.649 27.469 193.17 26.8293Z" fill="#4FC646"/>
<path d="M194.653 18.8095C194.629 17.7071 194.301 16.9817 193.903 16.502C194.225 16.976 194.465 17.6443 194.489 18.5925C194.489 18.5925 193.504 18.7182 192.83 17.9299C193.498 18.958 194.653 18.8095 194.653 18.8095Z" fill="#4FC646"/>
<path d="M199.699 15.2805C201.908 11.5564 201.914 8.74621 201.504 7.00977C201.75 8.76332 201.498 11.3222 199.57 14.5723C199.57 14.5723 198.527 13.8811 198.111 12.2532C198.357 14.3894 199.699 15.2805 199.699 15.2805Z" fill="#4FC646"/>
<path d="M208.929 18.4316C207.815 19.3227 204.833 21.0191 199.407 19.5512C199.16 19.8882 199.061 20.1281 199.061 20.1281C206.532 22.3443 209.573 18.6544 209.573 18.6544C209.356 18.5745 209.14 18.5002 208.929 18.4316Z" fill="#4FC646"/>
<path d="M205.957 11.0304C205.758 10.7562 205.512 10.3449 205.359 9.78516C205.418 10.3964 205.594 10.8819 205.781 11.2474C205.845 11.1732 205.904 11.0989 205.957 11.0304Z" fill="#4FC646"/>
<path d="M208.747 5.04883C209.011 6.89374 208.847 9.34986 206.778 11.0863C206.034 12.7998 204.51 14.8446 201.399 16.4839C199.536 17.4663 197.513 18.82 195.797 20.5336C195.855 20.545 195.914 20.5507 195.967 20.5679C195.99 20.5735 196.014 20.585 196.043 20.5907C196.049 20.5907 196.054 20.5907 196.067 20.5964C196.072 20.5964 196.078 20.5907 196.09 20.5907C196.149 20.5907 196.189 20.6078 196.231 20.6364C196.324 20.6478 196.424 20.665 196.512 20.6935C197.69 19.614 198.979 18.6772 200.244 17.9176C200.532 17.7462 200.807 17.5863 201.088 17.432C201.235 17.3521 201.387 17.2721 201.533 17.1922C204.645 15.5529 206.175 13.508 206.913 11.7945C209.251 9.8182 209.151 6.92234 208.747 5.04883Z" fill="#4FC646"/>
<path d="M193.3 24.498C193.282 24.5037 193.264 24.5095 193.241 24.5095C193.229 24.5095 193.218 24.5037 193.206 24.5037C193.182 24.5095 193.165 24.5152 193.142 24.5152C193.118 24.5152 193.094 24.5095 193.077 24.5037C193.012 24.5095 192.948 24.5209 192.884 24.5266C192.884 24.5266 192.884 24.5266 192.878 24.5266C191.852 26.6228 191.413 29.0332 191.987 31.752C191.571 29.0104 192.192 26.5942 193.382 24.5095C193.359 24.5037 193.329 24.5037 193.3 24.498Z" fill="#4FC646"/>
</g>
<defs>
<clipPath id="clip0_54796_1325">
<rect width="230" height="37" fill="white"/>
</clipPath>
</defs>
</svg>
