<svg width="300" height="100" viewBox="0 0 300 100" fill="none" xmlns="http://www.w3.org/2000/svg">
<path d="M61.04 40.28V38.36H67.76V41H67.28L61.04 40.28ZM68.24 67.88L74.48 68.6V70.52H61.04V68.6L67.28 67.88H68.24ZM65.6 53.24C65.6 48.3 65.6 43.3 65.46 38.36H70.07C69.93 43.21 69.93 48.2 69.93 53.24V55.06C69.93 60.58 69.93 65.57 70.07 70.52H65.46C65.6 65.67 65.6 60.68 65.6 55.64V53.24ZM81.06 38.36L83.22 40.76H67.76V38.36H84.9L85.24 46.9H82.55L81.06 38.36ZM78.99 55.21H67.76V53H78.99V55.21ZM77.46 53.48L78.18 48.39H80.34V60.25H78.18L77.46 54.92V53.48Z" fill="white"/>
<path d="M95.22 35L95.89 35.38L95.7 42.2V60.44C95.7 63.8 95.75 67.16 95.84 70.52H91.71C91.81 67.16 91.85 63.8 91.85 60.44V39.32L87.87 38.84V37.16L95.22 35ZM99.68 68.84V70.52H87.87V68.84L93.29 67.88H94.25L99.68 68.84Z" fill="white"/>
<path d="M110.96 57.94C112.98 57.22 116 56.36 118.4 55.92V57.65C116.24 58.08 113.41 58.99 111.97 59.57C107.65 61.25 107.17 63.07 107.17 64.47C107.17 67.01 108.85 68.02 111.06 68.02C112.74 68.02 113.7 67.4 116.72 65.24L117.68 64.52L118.35 65.53L116.96 66.92C114.08 69.8 112.45 71.14 109.52 71.14C106.02 71.14 103.09 69.12 103.09 65.14C103.09 62.45 104.53 60.29 110.96 57.94ZM116.48 66.1V55.16C116.48 50.46 115.14 49.3 111.97 49.3C110.87 49.3 109.43 49.44 107.65 50.16L109.57 48.67L108.32 52.8C107.89 54.19 107.17 54.96 105.87 54.96C104.57 54.96 103.81 54.24 103.71 53.04C104.62 49.39 108.17 47.14 112.98 47.14C117.92 47.14 120.32 49.4 120.32 55.44V65.62C120.32 67.78 120.99 68.55 122.1 68.55C122.92 68.55 123.44 68.12 123.97 67.49L124.93 68.55C123.78 70.37 122.48 71 120.85 71C118.21 71 116.48 69.08 116.48 66.1Z" fill="white"/>
<path d="M130.93 60.44V58.18C130.93 55.54 130.88 54.05 130.79 52.13L126.95 51.7V50.02L133.48 47.14L134.2 47.62L134.78 53.62V60.44C134.78 63.42 134.83 68.36 134.92 70.52H130.79C130.88 68.36 130.93 63.41 130.93 60.44ZM127.33 68.84L132.61 67.88H133.57L138.85 68.84V70.52H127.33V68.84ZM132.85 53.96H135.59L134.39 54.3C135.93 49.84 138.85 47.15 141.69 47.15C143.08 47.15 144.52 47.82 145.1 48.78C145.1 51.04 144.24 52.28 142.32 52.28C141.22 52.28 140.3 51.85 139.44 51.13L138.14 50.03L140.49 49.55C137.51 51.09 135.79 53.49 134.68 57.18H132.86V53.96H132.85Z" fill="white"/>
<path d="M167.46 56.31C167.46 57.41 167.32 58.37 167.12 59H149.41V56.98H160.83C163.13 56.98 163.66 55.88 163.66 54.53C163.66 51.79 161.36 49.3 158.33 49.3C155.26 49.3 151.71 51.89 151.71 58.76C151.71 64.86 154.78 68.12 159.58 68.12C162.65 68.12 164.57 66.73 166.3 64.71L167.4 65.57C165.67 68.98 162.6 71.14 158.23 71.14C151.8 71.14 147.62 66.68 147.62 59.38C147.62 52.04 152.61 47.14 158.57 47.14C163.52 47.14 167.46 50.5 167.46 56.31Z" fill="white"/>
<path d="M172.35 69.32L172.16 64.09H174.7L176 69.76L173.65 68.66V67.03C175.33 68.33 177.15 69 179.56 69C183.26 69 184.98 67.51 184.98 65.3C184.98 63.24 183.54 62.18 180.52 61.08L178.31 60.26C174.81 58.96 172.5 57.09 172.5 53.83C172.5 50.37 175.43 47.16 180.76 47.16C183.35 47.16 185.37 47.88 187.43 49.13L187.24 53.98H184.84L183.88 49.13L185.61 49.9V51.15C184.07 49.95 182.44 49.33 180.71 49.33C177.73 49.33 176.2 50.63 176.2 52.64C176.2 54.8 177.4 55.62 180.66 56.82L182.1 57.35C186.9 59.13 188.72 61.38 188.72 64.36C188.72 67.91 185.6 71.18 179.46 71.18C176.77 71.14 174.7 70.52 172.35 69.32Z" fill="white"/>
<path d="M195.97 70.52C196.07 68.36 196.11 63.42 196.11 60.44V58.18C196.11 55.54 196.06 54.05 195.97 52.13L192.03 51.7V50.02L199.28 47.14L200 47.62L199.86 54.1V60.44C199.86 63.42 199.91 68.36 200 70.52H195.97ZM203.36 68.84V70.52H192.32V68.84L197.6 67.88H198.56L203.36 68.84ZM194.77 38.69C194.77 36.87 196.16 35.67 197.94 35.67C199.72 35.67 201.11 36.87 201.11 38.69C201.11 40.47 199.72 41.71 197.94 41.71C196.16 41.71 194.77 40.47 194.77 38.69Z" fill="white"/>
<path d="M224.86 74.93C224.86 72.77 223.52 71.14 220.01 71.14H214.35C213.53 71.14 212.67 71.09 211.95 71V70.86C209.5 70.33 208.25 69.08 208.25 67.07C208.25 65.39 209.35 63.57 212.62 60.73L213.68 61.45C212.24 62.99 211.62 64.04 211.62 65.48C211.62 66.78 212.15 67.64 214.4 67.64H220.74C225.88 67.64 228.32 69.9 228.32 73.78C228.32 77.91 224.38 82.04 216.61 82.04C209.7 82.04 206.67 79.64 206.67 76.18C206.67 73.83 208.16 72.05 213.01 69.99L213.25 70.28C211.33 72.15 210.56 73.59 210.56 75.46C210.56 78.63 213.01 79.88 216.75 79.88C222.03 79.88 224.86 77.67 224.86 74.93ZM216.42 47.14C221.32 47.14 224.96 49.73 224.96 55.01C224.96 60.1 221.22 62.88 216.37 62.88C211.43 62.88 207.78 60.29 207.78 55.01C207.77 49.93 211.52 47.14 216.42 47.14ZM211.52 55.06C211.52 58.56 213.25 60.96 216.22 60.96C219.34 60.96 221.21 58.42 221.21 54.86C221.21 51.45 219.48 49.05 216.46 49.05C213.39 49.06 211.52 51.56 211.52 55.06ZM227.84 47.14L228.56 47.62V50.6H221.5V49.3L227.84 47.14Z" fill="white"/>
<path d="M234.85 39.32L230.87 38.84V37.16L238.07 35L238.74 35.38L238.55 42.2V52.38L238.69 53V60.44C238.69 63.42 238.74 68.36 238.83 70.52H234.7C234.8 68.36 234.84 63.42 234.84 60.44V39.32H234.85ZM242.14 68.84V70.52H231.1V68.84L236.38 67.88H237.34L242.14 68.84ZM253.47 56.02V60.44C253.47 63.51 253.52 68.36 253.61 70.52H249.48C249.58 68.36 249.62 63.51 249.62 60.44V56.41C249.62 51.95 248.47 50.51 245.59 50.51C243.19 50.51 241.22 51.37 238.49 53.82H237.48V51.66H239.93L237.77 52.52C240.03 49.5 243.96 47.14 247.37 47.14C251.5 47.14 253.47 49.69 253.47 56.02ZM252.17 67.88L256.97 68.84V70.52H245.93V68.84L251.21 67.88H252.17Z" fill="white"/>
<path d="M269.45 68.74C270.51 68.74 271.47 68.31 272.71 67.4L273.81 68.7C272.61 70.24 270.64 71.15 268.24 71.15C264.93 71.15 262.86 69.42 262.86 65.73C262.86 64.58 262.91 63.57 262.91 61.7V50.26H258.88V48.2L264.83 47.43L262.91 49.01L264.35 41.23H267.13L266.75 49.63V65.18C266.77 67.69 267.82 68.74 269.45 68.74ZM273.39 47.77V50.27H264.85V47.77H273.39Z" fill="white"/>
<path d="M61.04 40.28V38.36H67.76V41H67.28L61.04 40.28ZM68.24 67.88L74.48 68.6V70.52H61.04V68.6L67.28 67.88H68.24ZM65.6 53.24C65.6 48.3 65.6 43.3 65.46 38.36H70.07C69.93 43.21 69.93 48.2 69.93 53.24V55.06C69.93 60.58 69.93 65.57 70.07 70.52H65.46C65.6 65.67 65.6 60.68 65.6 55.64V53.24ZM81.06 38.36L83.22 40.76H67.76V38.36H84.9L85.24 46.9H82.55L81.06 38.36ZM78.99 55.21H67.76V53H78.99V55.21ZM77.46 53.48L78.18 48.39H80.34V60.25H78.18L77.46 54.92V53.48Z" fill="#0049FF"/>
<path d="M95.22 35L95.89 35.38L95.7 42.2V60.44C95.7 63.8 95.75 67.16 95.84 70.52H91.71C91.81 67.16 91.85 63.8 91.85 60.44V39.32L87.87 38.84V37.16L95.22 35ZM99.68 68.84V70.52H87.87V68.84L93.29 67.88H94.25L99.68 68.84Z" fill="#0049FF"/>
<path d="M110.96 57.94C112.98 57.22 116 56.36 118.4 55.92V57.65C116.24 58.08 113.41 58.99 111.97 59.57C107.65 61.25 107.17 63.07 107.17 64.47C107.17 67.01 108.85 68.02 111.06 68.02C112.74 68.02 113.7 67.4 116.72 65.24L117.68 64.52L118.35 65.53L116.96 66.92C114.08 69.8 112.45 71.14 109.52 71.14C106.02 71.14 103.09 69.12 103.09 65.14C103.09 62.45 104.53 60.29 110.96 57.94ZM116.48 66.1V55.16C116.48 50.46 115.14 49.3 111.97 49.3C110.87 49.3 109.43 49.44 107.65 50.16L109.57 48.67L108.32 52.8C107.89 54.19 107.17 54.96 105.87 54.96C104.57 54.96 103.81 54.24 103.71 53.04C104.62 49.39 108.17 47.14 112.98 47.14C117.92 47.14 120.32 49.4 120.32 55.44V65.62C120.32 67.78 120.99 68.55 122.1 68.55C122.92 68.55 123.44 68.12 123.97 67.49L124.93 68.55C123.78 70.37 122.48 71 120.85 71C118.21 71 116.48 69.08 116.48 66.1Z" fill="#0049FF"/>
<path d="M130.93 60.44V58.18C130.93 55.54 130.88 54.05 130.79 52.13L126.95 51.7V50.02L133.48 47.14L134.2 47.62L134.78 53.62V60.44C134.78 63.42 134.83 68.36 134.92 70.52H130.79C130.88 68.36 130.93 63.41 130.93 60.44ZM127.33 68.84L132.61 67.88H133.57L138.85 68.84V70.52H127.33V68.84ZM132.85 53.96H135.59L134.39 54.3C135.93 49.84 138.85 47.15 141.69 47.15C143.08 47.15 144.52 47.82 145.1 48.78C145.1 51.04 144.24 52.28 142.32 52.28C141.22 52.28 140.3 51.85 139.44 51.13L138.14 50.03L140.49 49.55C137.51 51.09 135.79 53.49 134.68 57.18H132.86V53.96H132.85Z" fill="#0049FF"/>
<path d="M167.46 56.31C167.46 57.41 167.32 58.37 167.12 59H149.41V56.98H160.83C163.13 56.98 163.66 55.88 163.66 54.53C163.66 51.79 161.36 49.3 158.33 49.3C155.26 49.3 151.71 51.89 151.71 58.76C151.71 64.86 154.78 68.12 159.58 68.12C162.65 68.12 164.57 66.73 166.3 64.71L167.4 65.57C165.67 68.98 162.6 71.14 158.23 71.14C151.8 71.14 147.62 66.68 147.62 59.38C147.62 52.04 152.61 47.14 158.57 47.14C163.52 47.14 167.46 50.5 167.46 56.31Z" fill="#0049FF"/>
<path d="M172.35 69.32L172.16 64.09H174.7L176 69.76L173.65 68.66V67.03C175.33 68.33 177.15 69 179.56 69C183.26 69 184.98 67.51 184.98 65.3C184.98 63.24 183.54 62.18 180.52 61.08L178.31 60.26C174.81 58.96 172.5 57.09 172.5 53.83C172.5 50.37 175.43 47.16 180.76 47.16C183.35 47.16 185.37 47.88 187.43 49.13L187.24 53.98H184.84L183.88 49.13L185.61 49.9V51.15C184.07 49.95 182.44 49.33 180.71 49.33C177.73 49.33 176.2 50.63 176.2 52.64C176.2 54.8 177.4 55.62 180.66 56.82L182.1 57.35C186.9 59.13 188.72 61.38 188.72 64.36C188.72 67.91 185.6 71.18 179.46 71.18C176.77 71.14 174.7 70.52 172.35 69.32Z" fill="#0049FF"/>
<path d="M195.97 70.52C196.07 68.36 196.11 63.42 196.11 60.44V58.18C196.11 55.54 196.06 54.05 195.97 52.13L192.03 51.7V50.02L199.28 47.14L200 47.62L199.86 54.1V60.44C199.86 63.42 199.91 68.36 200 70.52H195.97ZM203.36 68.84V70.52H192.32V68.84L197.6 67.88H198.56L203.36 68.84ZM194.77 38.69C194.77 36.87 196.16 35.67 197.94 35.67C199.72 35.67 201.11 36.87 201.11 38.69C201.11 40.47 199.72 41.71 197.94 41.71C196.16 41.71 194.77 40.47 194.77 38.69Z" fill="#0049FF"/>
<path d="M224.86 74.93C224.86 72.77 223.52 71.14 220.01 71.14H214.35C213.53 71.14 212.67 71.09 211.95 71V70.86C209.5 70.33 208.25 69.08 208.25 67.07C208.25 65.39 209.35 63.57 212.62 60.73L213.68 61.45C212.24 62.99 211.62 64.04 211.62 65.48C211.62 66.78 212.15 67.64 214.4 67.64H220.74C225.88 67.64 228.32 69.9 228.32 73.78C228.32 77.91 224.38 82.04 216.61 82.04C209.7 82.04 206.67 79.64 206.67 76.18C206.67 73.83 208.16 72.05 213.01 69.99L213.25 70.28C211.33 72.15 210.56 73.59 210.56 75.46C210.56 78.63 213.01 79.88 216.75 79.88C222.03 79.88 224.86 77.67 224.86 74.93ZM216.42 47.14C221.32 47.14 224.96 49.73 224.96 55.01C224.96 60.1 221.22 62.88 216.37 62.88C211.43 62.88 207.78 60.29 207.78 55.01C207.77 49.93 211.52 47.14 216.42 47.14ZM211.52 55.06C211.52 58.56 213.25 60.96 216.22 60.96C219.34 60.96 221.21 58.42 221.21 54.86C221.21 51.45 219.48 49.05 216.46 49.05C213.39 49.06 211.52 51.56 211.52 55.06ZM227.84 47.14L228.56 47.62V50.6H221.5V49.3L227.84 47.14Z" fill="#0049FF"/>
<path d="M234.85 39.32L230.87 38.84V37.16L238.07 35L238.74 35.38L238.55 42.2V52.38L238.69 53V60.44C238.69 63.42 238.74 68.36 238.83 70.52H234.7C234.8 68.36 234.84 63.42 234.84 60.44V39.32H234.85ZM242.14 68.84V70.52H231.1V68.84L236.38 67.88H237.34L242.14 68.84ZM253.47 56.02V60.44C253.47 63.51 253.52 68.36 253.61 70.52H249.48C249.58 68.36 249.62 63.51 249.62 60.44V56.41C249.62 51.95 248.47 50.51 245.59 50.51C243.19 50.51 241.22 51.37 238.49 53.82H237.48V51.66H239.93L237.77 52.52C240.03 49.5 243.96 47.14 247.37 47.14C251.5 47.14 253.47 49.69 253.47 56.02ZM252.17 67.88L256.97 68.84V70.52H245.93V68.84L251.21 67.88H252.17Z" fill="#0049FF"/>
<path d="M269.45 68.74C270.51 68.74 271.47 68.31 272.71 67.4L273.81 68.7C272.61 70.24 270.64 71.15 268.24 71.15C264.93 71.15 262.86 69.42 262.86 65.73C262.86 64.58 262.91 63.57 262.91 61.7V50.26H258.88V48.2L264.83 47.43L262.91 49.01L264.35 41.23H267.13L266.75 49.63V65.18C266.77 67.69 267.82 68.74 269.45 68.74ZM273.39 47.77V50.27H264.85V47.77H273.39Z" fill="#0049FF"/>
<path d="M196.5 42C198.433 42 200 40.433 200 38.5C200 36.567 198.433 35 196.5 35C194.567 35 193 36.567 193 38.5C193 40.433 194.567 42 196.5 42Z" fill="white"/>
<path d="M52.19 71.49C52.19 71.49 43.79 70.01 43.79 64.34C43.79 58.67 48.1 55.6 45.15 53.33C45.15 53.33 48.22 52.65 48.67 58.21C48.67 58.21 52.42 52.99 47.19 46.63C41.97 40.27 44.01 36.3 46.4 33.57C48.78 30.85 51.28 28.8 50.37 25.06C50.37 25.06 52.75 27.22 52.19 29.37C51.62 31.53 46.06 36.98 50.83 39.59C50.83 39.59 56.05 41.08 53.9 35.73C53.9 35.73 58.44 37.32 59.69 40.61C60.94 43.9 62.19 49.24 53.79 57.64C45.38 66.04 52.19 71.49 52.19 71.49Z" fill="url(#paint0_linear_256_4807)"/>
<path d="M57.17 58.69C57.17 58.69 57.39 56.2 60.62 52.64C63.85 49.08 62.68 44.85 62.68 44.85C62.68 44.85 65.3 50.14 63.18 53.13C61.06 56.11 59.18 55.01 57.17 58.69Z" fill="url(#paint1_linear_256_4807)"/>
<path opacity="0.1" d="M63.17 53.12C63.53 52.61 63.74 52.04 63.87 51.43C63.81 51.52 62.57 53.47 61.57 53.97C59.82 54.85 58.16 56.21 57.58 57.99C59.44 55.14 61.2 55.91 63.17 53.12Z" fill="black"/>
<path opacity="0.1" d="M52.79 58.7C52.79 58.69 44.01 66.94 52.19 71.49C52.19 71.49 45.96 66.49 52.79 58.7Z" fill="black"/>
<path d="M199.8 40.83C199.8 40.83 201.51 39.46 201.77 37.67C202.03 35.88 201.77 33.48 201.77 33.48C201.77 33.48 204.92 39.12 199.8 40.83Z" fill="url(#paint2_linear_256_4807)"/>
<path d="M192.43 44.55C192.43 44.55 190.91 41.99 191.77 39.76C192.62 37.54 195.27 34.29 194.68 30.96C194.68 30.96 193.82 33.84 191.51 36.54C189.2 39.25 190.53 41.56 192.43 44.55Z" fill="url(#paint3_linear_256_4807)"/>
<path d="M198.9 41.22C197.62 38.66 205.4 35.64 197.62 23.47C197.62 23.47 199.48 30.3 195.23 35.32C191.54 39.67 191.89 45.09 195.72 45.85C195.9 45.88 196.08 45.91 196.25 45.93C196.25 45.93 193.94 44.9 194.2 42.25C194.46 39.6 195.74 39.16 196.25 37.5C196.25 37.5 195.51 41.34 196.25 42.85C196.75 43.88 198.47 44.29 199.33 43.19C199.33 43.19 199.3 45.05 198.2 45.79C200.92 45.11 203 42.59 203 40.57C203 40.57 200.18 43.79 198.9 41.22Z" fill="url(#paint4_linear_256_4807)"/>
<path opacity="0.1" d="M198.8 45.14C198.65 45.39 198.45 45.62 198.2 45.78C200.92 45.1 203 42.58 203 40.56C203 40.57 201.26 43.54 198.8 45.14Z" fill="black"/>
<path opacity="0.1" d="M192.87 39.8C192.15 42.76 193.16 45.35 195.72 45.85C195.9 45.88 196.08 45.91 196.25 45.93C196.25 45.93 196.2 45.91 196.12 45.86C196.11 45.86 192.19 44.65 192.87 39.8Z" fill="black"/>
<path opacity="0.1" d="M191.76 39.77C192.3 38.37 193.55 36.56 194.25 34.58C194.23 34.62 192.39 37.62 191.48 38.79C190.76 39.71 190.81 41.92 192.43 44.55C192.43 44.55 190.91 41.99 191.76 39.77Z" fill="black"/>
<path opacity="0.1" d="M202.73 36.94C202.73 36.95 202.29 39.61 199.8 40.82C202.13 40.05 202.75 38.45 202.73 36.94Z" fill="black"/>
<defs>
<linearGradient id="paint0_linear_256_4807" x1="52.1869" y1="25.0507" x2="52.1869" y2="71.4861" gradientUnits="userSpaceOnUse">
<stop stop-color="#FAAF40"/>
<stop offset="0.1778" stop-color="#FAAC3C"/>
<stop offset="0.3471" stop-color="#F8A231"/>
<stop offset="0.51" stop-color="#F6921E"/>
<stop offset="0.83" stop-color="#F05A28"/>
<stop offset="0.9347" stop-color="#ED3125"/>
<stop offset="1" stop-color="#EC1C24"/>
</linearGradient>
<linearGradient id="paint1_linear_256_4807" x1="60.5836" y1="44.8449" x2="60.5836" y2="58.6909" gradientUnits="userSpaceOnUse">
<stop stop-color="#FAAF40"/>
<stop offset="0.1778" stop-color="#FAAC3C"/>
<stop offset="0.3471" stop-color="#F8A231"/>
<stop offset="0.51" stop-color="#F6921E"/>
<stop offset="0.83" stop-color="#F05A28"/>
<stop offset="0.9347" stop-color="#ED3125"/>
<stop offset="1" stop-color="#EC1C24"/>
</linearGradient>
<linearGradient id="paint2_linear_256_4807" x1="201.261" y1="33.4785" x2="201.261" y2="40.8281" gradientUnits="userSpaceOnUse">
<stop stop-color="#FAAF40"/>
<stop offset="0.1778" stop-color="#FAAC3C"/>
<stop offset="0.3471" stop-color="#F8A231"/>
<stop offset="0.51" stop-color="#F6921E"/>
<stop offset="0.83" stop-color="#F05A28"/>
<stop offset="0.9347" stop-color="#ED3125"/>
<stop offset="1" stop-color="#EC1C24"/>
</linearGradient>
<linearGradient id="paint3_linear_256_4807" x1="192.519" y1="30.9635" x2="192.519" y2="44.5516" gradientUnits="userSpaceOnUse">
<stop stop-color="#FAAF40"/>
<stop offset="0.1778" stop-color="#FAAC3C"/>
<stop offset="0.3471" stop-color="#F8A231"/>
<stop offset="0.51" stop-color="#F6921E"/>
<stop offset="0.83" stop-color="#F05A28"/>
<stop offset="0.9347" stop-color="#ED3125"/>
<stop offset="1" stop-color="#EC1C24"/>
</linearGradient>
<linearGradient id="paint4_linear_256_4807" x1="197.82" y1="23.4748" x2="197.82" y2="45.9279" gradientUnits="userSpaceOnUse">
<stop stop-color="#FAAF40"/>
<stop offset="0.1778" stop-color="#FAAC3C"/>
<stop offset="0.3471" stop-color="#F8A231"/>
<stop offset="0.51" stop-color="#F6921E"/>
<stop offset="0.83" stop-color="#F05A28"/>
<stop offset="0.9347" stop-color="#ED3125"/>
<stop offset="1" stop-color="#EC1C24"/>
</linearGradient>
</defs>
</svg>
