<svg width="20" height="22" viewBox="0 0 20 22" fill="none" xmlns="http://www.w3.org/2000/svg">
<g id="Group 26">
<path id="Vector" d="M1.47778 4.92139H3.47989H19.4967" stroke="#FF3A29" stroke-linecap="round" stroke-linejoin="round"/>
<path id="Vector_2" d="M17.4946 4.92128V19.1055C17.4946 19.6429 17.2837 20.1583 16.9082 20.5383C16.5327 20.9183 16.0235 21.1318 15.4925 21.1318H5.48196C4.95097 21.1318 4.44173 20.9183 4.06626 20.5383C3.69079 20.1583 3.47986 19.6429 3.47986 19.1055V4.92128M6.48302 4.92128V2.89497C6.48302 2.35756 6.69395 1.84215 7.06942 1.46215C7.44489 1.08214 7.95413 0.868652 8.48512 0.868652H12.4893C13.0203 0.868652 13.5296 1.08214 13.905 1.46215C14.2805 1.84215 14.4914 2.35756 14.4914 2.89497V4.92128" stroke="#FF3A29" stroke-linecap="round" stroke-linejoin="round"/>
</g>
</svg>
