<svg width="22" height="22" viewBox="0 0 22 22" fill="none" xmlns="http://www.w3.org/2000/svg">
<g id="Group 25">
<path id="Vector" d="M10.4119 3.00488H3.44682C2.91903 3.00488 2.41286 3.21708 2.03965 3.5948C1.66645 3.97252 1.45679 4.48481 1.45679 5.01898V19.1177C1.45679 19.6518 1.66645 20.1641 2.03965 20.5419C2.41286 20.9196 2.91903 21.1318 3.44682 21.1318H17.3771C17.9049 21.1318 18.411 20.9196 18.7842 20.5419C19.1574 20.1641 19.3671 19.6518 19.3671 19.1177V12.0683" stroke="#34B53A" stroke-linecap="round" stroke-linejoin="round"/>
<path id="Vector_2" d="M17.8746 1.49435C18.2704 1.09372 18.8073 0.868652 19.3671 0.868652C19.9269 0.868652 20.4638 1.09372 20.8596 1.49435C21.2555 1.89498 21.4778 2.43835 21.4778 3.00493C21.4778 3.5715 21.2555 4.11487 20.8596 4.5155L11.4069 14.0825L7.42688 15.0895L8.4219 11.0613L17.8746 1.49435Z" stroke="#34B53A" stroke-linecap="round" stroke-linejoin="round"/>
</g>
</svg>
